<?xml version="1.0" encoding="utf-8"?>
<!-- Generator: Adobe Illustrator 19.1.0, SVG Export Plug-In . SVG Version: 6.00 Build 0)  -->
<svg version="1.1" xmlns="http://www.w3.org/2000/svg" xmlns:xlink="http://www.w3.org/1999/xlink" x="0px" y="0px"
	 viewBox="0 0 150 150" enable-background="new 0 0 150 150" xml:space="preserve">
<g id="icons">
	<g>
		<path fill="#9CC32C" d="M78.705,102.923l18.319-21.308l18.086,21.038c9.246-9.84,14.914-23.084,14.914-37.653
			c0-30.376-24.624-55-55-55c-30.376,0-55,24.624-55,55c0,11.779,3.705,22.693,10.01,31.642L53.023,43L78.705,102.923z"/>
		<path fill="#BAC4C6" d="M78.705,102.923l6.882,16.059c11.536-2.244,21.784-8.094,29.523-16.329L97.023,81.614L78.705,102.923z"/>
		<path fill="#D3DBDD" d="M64.837,119.055l13.868-16.132L53.023,43l-22.99,53.642C38.125,108.125,50.5,116.369,64.837,119.055z"/>
		<path fill="#D3DBDD" d="M78.705,102.923l-13.868,16.132c3.301,0.618,6.706,0.945,10.187,0.945c3.613,0,7.144-0.352,10.564-1.018
			L78.705,102.923z"/>
		<path fill="#FFFFFF" d="M98.371,37.658c-0.662-1.798-2.389-3.08-4.417-3.08c-2.598,0-4.705,2.106-4.705,4.705
			c0,0.031,0.002,0.062,0.002,0.093c-0.19-0.05-0.389-0.079-0.595-0.079c-1.295,0-2.345,1.05-2.345,2.346
			c0,1.295,1.05,2.346,2.345,2.346h9.575c1.75,0,3.169-1.419,3.169-3.168C101.4,39.117,100.055,37.732,98.371,37.658z"/>
		<path fill="#FFFFFF" d="M30.922,54.664c0.569-1.548,2.056-2.651,3.801-2.651c2.236,0,4.048,1.813,4.048,4.049
			c0,0.027-0.001,0.053-0.002,0.08c0.164-0.043,0.335-0.068,0.512-0.068c1.115,0,2.018,0.904,2.018,2.018
			c0,1.115-0.903,2.019-2.018,2.019h-8.24c-1.506,0-2.727-1.221-2.727-2.727C28.315,55.92,29.472,54.727,30.922,54.664z"/>
		
			<line fill="none" stroke="#30241C" stroke-width="1.7188" stroke-linejoin="round" stroke-miterlimit="10" x1="31.252" y1="76" x2="53.252" y2="76"/>
		
			<line fill="none" stroke="#30241C" stroke-width="1.7188" stroke-linejoin="round" stroke-miterlimit="10" x1="19.976" y1="81.386" x2="41.174" y2="81.386"/>
		
			<line fill="none" stroke="#30241C" stroke-width="1.7188" stroke-linejoin="round" stroke-miterlimit="10" x1="97.367" y1="92.386" x2="113.523" y2="92.386"/>
		
			<line fill="none" stroke="#30241C" stroke-width="1.7188" stroke-linejoin="round" stroke-miterlimit="10" x1="108.024" y1="98" x2="124.18" y2="98"/>
		
			<line fill="none" stroke="#30241C" stroke-width="1.7188" stroke-linejoin="round" stroke-miterlimit="10" x1="99.945" y1="103.5" x2="116.102" y2="103.5"/>
		<path fill="none" stroke="#30241C" stroke-width="1.7188" stroke-linejoin="round" stroke-miterlimit="10" d="M74.336,115.531
			c-27.528,0-49.844-22.316-49.844-49.844"/>
		<path fill="none" stroke="#30241C" stroke-width="1.7188" stroke-linejoin="round" stroke-miterlimit="10" d="M74.336,15.844
			c27.528,0,49.844,22.316,49.844,49.844"/>
		<polygon fill="#5E9A31" points="80.523,28.562 53.023,28.562 53.023,12.063 80.523,12.063 75.023,20.266 		"/>
		
			<line fill="none" stroke="#30241C" stroke-width="1.7188" stroke-linejoin="round" stroke-miterlimit="10" x1="53.023" y1="10" x2="53.023" y2="44.031"/>
		<path fill="#FFFFFF" d="M120.036,62.678c-1.218-3.311-4.4-5.673-8.133-5.673c-3.731,0-6.91,2.358-8.13,5.665
			c-0.037-0.001-0.073-0.006-0.11-0.006c-3.044,0-5.541,2.332-5.808,5.307c-0.199-0.039-0.404-0.06-0.615-0.06
			c-1.773,0-3.211,1.438-3.211,3.211c0,1.773,1.437,3.211,3.211,3.211h22.539c3.222,0,5.834-2.612,5.834-5.834
			C125.614,65.364,123.138,62.813,120.036,62.678z"/>
	</g>
	<text transform="matrix(1 0 0 1 20.8838 138.4721)" font-family="'Karla-BoldItalic'" font-size="14px">Challenge setting</text>
</g>
<g id="Layer_2">
</g>
</svg>
