<?xml version="1.0" encoding="utf-8"?>
<!-- Generator: Adobe Illustrator 19.1.0, SVG Export Plug-In . SVG Version: 6.00 Build 0)  -->
<svg version="1.1" xmlns="http://www.w3.org/2000/svg" xmlns:xlink="http://www.w3.org/1999/xlink" x="0px" y="0px"
	 viewBox="0 0 150 150" enable-background="new 0 0 150 150" xml:space="preserve">
<g id="icons">
	<g>
		<path fill="#9CC32C" d="M80.368,119.818l21.649-25.183l21.375,24.863c10.928-11.63,17.625-27.281,17.625-44.499
			c0-35.898-29.102-65-65-65c-35.899,0-65,29.102-65,65c0,13.921,4.378,26.819,11.83,37.395L50.017,49L80.368,119.818z"/>
		<path fill="#BAC4C6" d="M80.368,119.818l8.134,18.979c13.634-2.653,25.745-9.565,34.891-19.298l-21.375-24.863L80.368,119.818z"/>
		<path fill="#D3DBDD" d="M63.978,138.883l16.39-19.065L50.017,49l-27.17,63.395C32.41,125.966,47.035,135.709,63.978,138.883z"/>
		<path fill="#D3DBDD" d="M80.368,119.818l-16.39,19.065c3.901,0.731,7.925,1.117,12.039,1.117c4.27,0,8.443-0.417,12.484-1.203
			L80.368,119.818z"/>
		<path fill="#FFFFFF" d="M103.609,42.687c-0.782-2.125-2.824-3.64-5.22-3.64c-3.071,0-5.56,2.489-5.56,5.561
			c0,0.036,0.002,0.073,0.003,0.109c-0.225-0.059-0.46-0.094-0.703-0.094c-1.531,0-2.772,1.241-2.772,2.772
			c0,1.531,1.241,2.772,2.772,2.772h11.316c2.068,0,3.745-1.677,3.745-3.744C107.189,44.411,105.6,42.774,103.609,42.687z"/>
		<path fill="#FFFFFF" d="M23.897,62.785c0.673-1.829,2.43-3.133,4.492-3.133c2.642,0,4.785,2.143,4.785,4.785
			c0,0.032-0.002,0.063-0.002,0.094c0.194-0.051,0.396-0.08,0.605-0.08c1.318,0,2.385,1.068,2.385,2.385
			c0,1.318-1.068,2.386-2.385,2.386h-9.738c-1.78,0-3.223-1.443-3.223-3.222C20.816,64.269,22.184,62.86,23.897,62.785z"/>
		
			<line fill="none" stroke="#30241C" stroke-width="2.0313" stroke-linejoin="round" stroke-miterlimit="10" x1="24.288" y1="88" x2="50.288" y2="88"/>
		
			<line fill="none" stroke="#30241C" stroke-width="2.0313" stroke-linejoin="round" stroke-miterlimit="10" x1="10.962" y1="94.365" x2="36.013" y2="94.365"/>
		
			<line fill="none" stroke="#30241C" stroke-width="2.0313" stroke-linejoin="round" stroke-miterlimit="10" x1="102.423" y1="107.365" x2="121.516" y2="107.365"/>
		
			<line fill="none" stroke="#30241C" stroke-width="2.0313" stroke-linejoin="round" stroke-miterlimit="10" x1="115.017" y1="114" x2="134.111" y2="114"/>
		
			<line fill="none" stroke="#30241C" stroke-width="2.0313" stroke-linejoin="round" stroke-miterlimit="10" x1="105.47" y1="120.5" x2="124.564" y2="120.5"/>
		<path fill="none" stroke="#30241C" stroke-width="2.0313" stroke-linejoin="round" stroke-miterlimit="10" d="M75.205,134.719
			c-32.533,0-58.906-26.373-58.906-58.906"/>
		<path fill="none" stroke="#30241C" stroke-width="2.0313" stroke-linejoin="round" stroke-miterlimit="10" d="M75.205,16.906
			c32.533,0,58.906,26.373,58.906,58.906"/>
		<polygon fill="#5E9A31" points="82.517,31.937 50.017,31.937 50.017,12.437 82.517,12.437 76.017,22.132 		"/>
		
			<line fill="none" stroke="#30241C" stroke-width="2.0313" stroke-linejoin="round" stroke-miterlimit="10" x1="50.017" y1="10" x2="50.017" y2="50.219"/>
		<path fill="#FFFFFF" d="M129.214,72.256c-1.44-3.913-5.2-6.704-9.612-6.704c-4.409,0-8.166,2.787-9.608,6.695
			c-0.044-0.001-0.086-0.007-0.13-0.007c-3.598,0-6.548,2.756-6.864,6.272c-0.235-0.046-0.478-0.071-0.727-0.071
			c-2.096,0-3.795,1.699-3.795,3.795c0,2.096,1.699,3.795,3.795,3.795h26.638c3.808,0,6.895-3.087,6.895-6.895
			C135.806,75.43,132.88,72.415,129.214,72.256z"/>
	</g>
</g>
<g id="Layer_2">
</g>
</svg>
