<?xml version="1.0" encoding="utf-8"?>
<!-- Generator: Adobe Illustrator 19.1.0, SVG Export Plug-In . SVG Version: 6.00 Build 0)  -->
<svg version="1.1" id="Layer_1" xmlns="http://www.w3.org/2000/svg" xmlns:xlink="http://www.w3.org/1999/xlink" x="0px" y="0px"
	 viewBox="0 0 56 56" enable-background="new 0 0 56 56" xml:space="preserve">
<g>
	<path fill="#FFFFFF" d="M42.291,41.865h-6.273V28.27c0-1.595-0.459-2.715-2.408-2.715c-3.256,0-3.885,2.715-3.885,2.715v13.595
		h-6.273V19.859h6.273v2.106c0.907-0.676,3.147-2.09,6.293-2.09c2.039,0,6.273,1.214,6.273,8.579V41.865z M17.359,18.528
		c-1.626,0-2.946-1.32-2.946-2.962c0-1.626,1.32-2.946,2.946-2.946c1.626,0.016,2.946,1.336,2.946,2.946
		C20.305,17.208,18.985,18.528,17.359,18.528 M20.305,41.865h-6.293V19.859h6.293V41.865z M27.989,0C12.542,0,0,12.542,0,27.989
		C0,43.458,12.542,56,27.989,56C43.458,56,56,43.458,56,27.989C56,12.525,43.458,0,27.989,0"/>
</g>
</svg>
