<?xml version="1.0" encoding="utf-8"?>
<!-- Generator: Adobe Illustrator 19.1.0, SVG Export Plug-In . SVG Version: 6.00 Build 0)  -->
<svg version="1.1" xmlns="http://www.w3.org/2000/svg" xmlns:xlink="http://www.w3.org/1999/xlink" x="0px" y="0px"
	 viewBox="0 0 150 150" enable-background="new 0 0 150 150" xml:space="preserve">
<g id="icons">
	<g>
		<polyline fill="none" stroke="#000000" stroke-width="2.031" stroke-miterlimit="10" points="81.639,72.15 64.817,72.15 
			64.817,54.611 87.046,54.611 93.836,54.611 107.019,54.611 107.019,72.15 89.549,72.15 		"/>
		<polygon fill="none" stroke="#000000" stroke-width="2.031" stroke-miterlimit="10" points="42.747,81.197 59.068,81.197 
			59.068,76.194 35.944,76.194 31.95,81.197 16.865,81.197 16.865,76.194 27.608,76.194 		"/>
		<polyline fill="#D3DBDD" stroke="#D3DBDD" stroke-width="2.0257" stroke-miterlimit="10" points="129.134,126.929 129.134,62.106 
			123.526,62.106 123.526,126.929 		"/>
		
			<rect x="123.526" y="62.106" fill="#9CC32C" stroke="#9CC32C" stroke-width="2.0257" stroke-miterlimit="10" width="5.608" height="16.206"/>
		<polyline fill="#9CC32C" stroke="#9CC32C" stroke-width="2.0257" stroke-miterlimit="10" points="118.33,110.801 118.33,89.116 
			112.928,89.116 112.928,105.611 		"/>
		<polyline fill="#D3DBDD" stroke="#D3DBDD" stroke-width="2.0257" stroke-miterlimit="10" points="112.928,116.447 
			112.928,126.929 118.33,126.929 118.33,121.892 		"/>
		
			<rect x="112.928" y="37.685" fill="#9CC32C" stroke="#9CC32C" stroke-width="2.0257" stroke-miterlimit="10" width="5.402" height="56.831"/>
		<path fill="#D3DBDD" stroke="#D3DBDD" stroke-width="2.0257" stroke-miterlimit="10" d="M93.515,55.101
			c0-19.998-16.212-36.21-36.21-36.21s-36.21,16.212-36.21,36.21c0,19.998,16.212,36.21,36.21,36.21
			c8.894,0,17.037-3.208,23.34-8.529l7.36,7.36l4.09-4.09l-7.339-7.339C90.214,72.373,93.515,64.123,93.515,55.101z M27.375,55.101
			c0-16.53,13.4-29.929,29.93-29.929s29.929,13.4,29.929,29.929c0,16.53-13.4,29.929-29.929,29.929S27.375,71.63,27.375,55.101z"/>
		<polygon fill="#5E9A31" stroke="#5E9A31" stroke-width="2.701" stroke-miterlimit="10" points="126.861,130.213 87.053,90.452 
			92.431,85.074 132.24,124.834 		"/>
		
			<line fill="none" stroke="#000000" stroke-width="2.031" stroke-linejoin="round" stroke-miterlimit="10" x1="105.909" y1="27.492" x2="123.727" y2="25.863"/>
		
			<line fill="none" stroke="#000000" stroke-width="2.031" stroke-linejoin="round" stroke-miterlimit="10" x1="82.629" y1="44.135" x2="99.272" y2="30.222"/>
		
			<line fill="none" stroke="#000000" stroke-width="2.031" stroke-linejoin="round" stroke-miterlimit="10" x1="60.914" y1="45.901" x2="77.791" y2="45.9"/>
		
			<line fill="none" stroke="#000000" stroke-width="2.031" stroke-linejoin="round" stroke-miterlimit="10" x1="41.531" y1="62.907" x2="53.77" y2="49.043"/>
		<circle fill="#9CC32C" stroke="#9CC32C" stroke-width="1.3505" stroke-miterlimit="10" cx="40.002" cy="64.639" r="2.532"/>
		<circle fill="#9CC32C" stroke="#9CC32C" stroke-width="1.3505" stroke-miterlimit="10" cx="80.516" cy="45.9" r="2.532"/>
		<circle fill="#9CC32C" stroke="#9CC32C" stroke-width="1.3505" stroke-miterlimit="10" cx="126.264" cy="25.631" r="2.532"/>
		<circle fill="#9CC32C" stroke="#9CC32C" stroke-width="1.3505" stroke-miterlimit="10" cx="56.545" cy="45.901" r="4.051"/>
		<circle fill="#9CC32C" stroke="#9CC32C" stroke-width="1.3505" stroke-miterlimit="10" cx="102.124" cy="27.838" r="4.051"/>
		
			<rect x="21.095" y="121.527" fill="#5E9A31" stroke="#5E9A31" stroke-width="2.0257" stroke-miterlimit="10" width="5.402" height="5.402"/>
		
			<rect x="21.095" y="110.712" fill="#5E9A31" stroke="#5E9A31" stroke-width="2.0257" stroke-miterlimit="10" width="5.402" height="5.402"/>
		
			<rect x="21.095" y="99.92" fill="#5E9A31" stroke="#5E9A31" stroke-width="2.0257" stroke-miterlimit="10" width="5.402" height="5.402"/>
		
			<line fill="none" stroke="#000000" stroke-width="2.031" stroke-linejoin="round" stroke-miterlimit="10" x1="31.899" y1="99.92" x2="75.283" y2="99.92"/>
		
			<line fill="none" stroke="#000000" stroke-width="2.031" stroke-linejoin="round" stroke-miterlimit="10" x1="31.899" y1="105.322" x2="58.908" y2="105.322"/>
		
			<line fill="none" stroke="#000000" stroke-width="2.031" stroke-linejoin="round" stroke-miterlimit="10" x1="31.899" y1="110.712" x2="75.283" y2="110.712"/>
		
			<line fill="none" stroke="#000000" stroke-width="2.031" stroke-linejoin="round" stroke-miterlimit="10" x1="31.899" y1="116.114" x2="58.908" y2="116.114"/>
		
			<line fill="none" stroke="#000000" stroke-width="2.031" stroke-linejoin="round" stroke-miterlimit="10" x1="31.899" y1="121.596" x2="75.283" y2="121.596"/>
		
			<line fill="none" stroke="#000000" stroke-width="2.031" stroke-linejoin="round" stroke-miterlimit="10" x1="31.899" y1="126.998" x2="58.908" y2="126.998"/>
		
			<rect x="80.516" y="124.297" fill="#D3DBDD" stroke="#D3DBDD" stroke-width="2.0257" stroke-miterlimit="10" width="5.402" height="2.701"/>
		
			<rect x="91.32" y="122.099" fill="#D3DBDD" stroke="#D3DBDD" stroke-width="2.0257" stroke-miterlimit="10" width="5.402" height="4.899"/>
		
			<rect x="102.124" y="114.486" fill="#D3DBDD" stroke="#D3DBDD" stroke-width="2.0257" stroke-miterlimit="10" width="5.402" height="12.512"/>
	</g>
</g>
<g id="Layer_2">
</g>
</svg>
