<?xml version="1.0" encoding="utf-8"?>
<!-- Generator: Adobe Illustrator 19.1.0, SVG Export Plug-In . SVG Version: 6.00 Build 0)  -->
<svg version="1.1" xmlns="http://www.w3.org/2000/svg" xmlns:xlink="http://www.w3.org/1999/xlink" x="0px" y="0px"
	 viewBox="0 0 150 150" enable-background="new 0 0 150 150" xml:space="preserve">
<g id="icons">
	<rect x="122.613" y="27.03" fill="#D3DBDD" width="3.779" height="71.463"/>
	<rect x="31.738" y="27.03" fill="#D3DBDD" width="1.89" height="71.463"/>
	<rect x="108.011" y="27.03" fill="#D3DBDD" width="10.415" height="71.463"/>
	<path fill="#D3DBDD" d="M25.211,27.03v60.371C22.304,87.579,20,89.986,20,92.938c0,2.952,2.304,5.359,5.211,5.537v0.017h3.779
		V27.03H25.211z"/>
	
		<path fill="none" stroke="#000000" stroke-width="1.7188" stroke-linecap="round" stroke-linejoin="round" stroke-miterlimit="10" d="
		M25.615,27.123H130v71.385H25.5c0,0-5.5-0.415-5.5-5.729c0-5.314,5.5-5.271,5.5-5.271v-66c0,0-5.5,0.043-5.5,5.5s0,65.771,0,65.771
		"/>
	<rect x="58.5" y="109.451" fill="#9CC32C" width="71.5" height="11.057"/>
	
		<line fill="none" stroke="#000000" stroke-width="1.7188" stroke-linejoin="round" stroke-miterlimit="10" x1="64" y1="109.451" x2="64" y2="114.979"/>
	
		<line fill="none" stroke="#000000" stroke-width="1.7188" stroke-linejoin="round" stroke-miterlimit="10" x1="77.75" y1="109.451" x2="77.75" y2="114.979"/>
	
		<line fill="none" stroke="#000000" stroke-width="1.7188" stroke-linejoin="round" stroke-miterlimit="10" x1="91.5" y1="109.451" x2="91.5" y2="114.979"/>
	
		<line fill="none" stroke="#000000" stroke-width="1.7188" stroke-linejoin="round" stroke-miterlimit="10" x1="105.25" y1="109.451" x2="105.25" y2="114.979"/>
	
		<line fill="none" stroke="#000000" stroke-width="1.7188" stroke-linejoin="round" stroke-miterlimit="10" x1="119" y1="109.451" x2="119" y2="114.979"/>
	<circle fill="none" stroke="#000000" stroke-width="1.7188" stroke-miterlimit="10" cx="124.5" cy="114.979" r="1.891"/>
	<rect x="41.312" y="10.508" fill="#5E9A31" width="55" height="8.364"/>
	<g>
		<path fill="none" stroke="#000000" stroke-width="1.7188" stroke-miterlimit="10" d="M128.111,15.377h-0.172
			c-0.38,0-0.688-0.308-0.688-0.688c0-0.379,0.308-0.688,0.688-0.688h0.172c0.38,0,0.688,0.308,0.688,0.688
			C128.799,15.07,128.491,15.377,128.111,15.377z M121.064,15.377h-0.172c-0.38,0-0.688-0.308-0.688-0.688
			c0-0.379,0.308-0.688,0.688-0.688h0.172c0.38,0,0.688,0.308,0.688,0.688C121.751,15.07,121.444,15.377,121.064,15.377z
			 M114.017,15.377h-0.172c-0.38,0-0.688-0.308-0.688-0.688c0-0.379,0.308-0.688,0.688-0.688h0.172c0.38,0,0.688,0.308,0.688,0.688
			C114.704,15.07,114.396,15.377,114.017,15.377z M106.969,15.377h-0.172c-0.38,0-0.688-0.308-0.688-0.688
			c0-0.379,0.308-0.688,0.688-0.688h0.172c0.38,0,0.688,0.308,0.688,0.688C107.657,15.07,107.349,15.377,106.969,15.377z
			 M99.922,15.377H99.75c-0.38,0-0.688-0.308-0.688-0.688c0-0.379,0.308-0.688,0.688-0.688h0.172c0.38,0,0.688,0.308,0.688,0.688
			C100.61,15.07,100.302,15.377,99.922,15.377z"/>
	</g>
	<polyline fill="none" stroke="#000000" stroke-width="1.7188" stroke-miterlimit="10" points="91.5,18.872 41.312,18.872 
		31.688,14.69 41.312,10.508 91.5,10.508 	"/>
	
		<line fill="none" stroke="#000000" stroke-width="1.7188" stroke-linejoin="round" stroke-miterlimit="10" x1="41.312" y1="14.69" x2="91.5" y2="14.69"/>
	<g>
		<circle fill="none" stroke="#5E9A31" stroke-width="2.0625" stroke-miterlimit="10" cx="99.115" cy="64.39" r="14.634"/>
		<g>
			
				<circle fill="none" stroke="#5E9A31" stroke-width="2.75" stroke-miterlimit="10" stroke-dasharray="2.1037,5.6099" cx="99.115" cy="64.39" r="15.964"/>
		</g>
	</g>
	<circle fill="none" stroke="#9CC32C" stroke-width="2.0625" stroke-miterlimit="10" cx="59.24" cy="57.515" r="18.293"/>
	<g>
		
			<circle fill="none" stroke="#9CC32C" stroke-width="2.75" stroke-miterlimit="10" stroke-dasharray="2.0109,5.3624" cx="59.24" cy="57.515" r="19.955"/>
	</g>
	
		<line fill="none" stroke="#000000" stroke-width="1.7188" stroke-linejoin="round" stroke-miterlimit="10" x1="73.167" y1="109.451" x2="73.167" y2="111.542"/>
	
		<line fill="none" stroke="#000000" stroke-width="1.7188" stroke-linejoin="round" stroke-miterlimit="10" x1="68.583" y1="109.451" x2="68.583" y2="111.542"/>
	
		<line fill="none" stroke="#000000" stroke-width="1.7188" stroke-linejoin="round" stroke-miterlimit="10" x1="86.917" y1="109.451" x2="86.917" y2="111.542"/>
	
		<line fill="none" stroke="#000000" stroke-width="1.7188" stroke-linejoin="round" stroke-miterlimit="10" x1="82.333" y1="109.451" x2="82.333" y2="111.542"/>
	
		<line fill="none" stroke="#000000" stroke-width="1.7188" stroke-linejoin="round" stroke-miterlimit="10" x1="100.667" y1="109.451" x2="100.667" y2="111.542"/>
	
		<line fill="none" stroke="#000000" stroke-width="1.7188" stroke-linejoin="round" stroke-miterlimit="10" x1="96.083" y1="109.451" x2="96.083" y2="111.542"/>
	
		<line fill="none" stroke="#000000" stroke-width="1.7188" stroke-linejoin="round" stroke-miterlimit="10" x1="114.417" y1="109.451" x2="114.417" y2="111.542"/>
	
		<line fill="none" stroke="#000000" stroke-width="1.7188" stroke-linejoin="round" stroke-miterlimit="10" x1="109.833" y1="109.451" x2="109.833" y2="111.542"/>
	
		<path fill="none" stroke="#000000" stroke-width="1.7188" stroke-linecap="round" stroke-linejoin="round" stroke-miterlimit="10" d="
		M99.75,60.92L99.75,60.92L64.897,49.184c-1.114-0.499-2.348-0.778-3.647-0.778c-4.936,0-8.938,4.001-8.938,8.938
		c0,4.936,4.002,8.938,8.938,8.938l37.813,1.271c1.851,0,3.352-1.501,3.352-3.352C102.414,62.586,101.271,61.238,99.75,60.92z"/>
	<text transform="matrix(1 0 0 1 20.471 138.472)" font-family="'Karla-BoldItalic'" font-size="14px">Idea development</text>
</g>
<g id="Layer_2">
</g>
</svg>
