<?xml version="1.0" encoding="utf-8"?>
<!-- Generator: Adobe Illustrator 19.1.0, SVG Export Plug-In . SVG Version: 6.00 Build 0)  -->
<svg version="1.1" xmlns="http://www.w3.org/2000/svg" xmlns:xlink="http://www.w3.org/1999/xlink" x="0px" y="0px"
	 viewBox="0 0 150 150" enable-background="new 0 0 150 150" xml:space="preserve">
<g id="icons">
	<g>
		<circle fill="#D3DBDD" cx="74.893" cy="75.001" r="59.54"/>
		<circle fill="#FFFFFF" cx="74.893" cy="75.001" r="50.635"/>
		<polygon fill="#9CC32C" points="74.981,21.729 53.578,43.132 53.578,106.934 74.917,128.273 74.917,128.053 75.029,128.274 
			75.14,128.053 75.14,128.273 96.48,106.934 96.48,43.132 		"/>
		<polygon fill="none" stroke="#30241C" stroke-width="2.031" stroke-linejoin="bevel" stroke-miterlimit="10" points="
			62.006,114.167 62.006,36.043 74.971,10.002 48.856,36.117 48.856,113.963 74.892,140 74.893,139.732 		"/>
		<polygon fill="none" stroke="#30241C" stroke-width="1.6276" stroke-linejoin="bevel" stroke-miterlimit="10" points="
			62.006,114.167 74.893,139.732 74.971,10.002 62.006,36.043 		"/>
		<polygon fill="none" stroke="#30241C" stroke-width="2.031" stroke-linejoin="bevel" stroke-miterlimit="10" points="
			101.202,36.117 74.971,10.002 88.052,36.043 88.052,114.167 75.165,139.733 75.165,140 101.202,113.963 		"/>
		<polygon fill="none" stroke="#30241C" stroke-width="2.031" stroke-linejoin="bevel" stroke-miterlimit="10" points="
			88.052,114.167 88.052,36.043 74.971,10.002 75.165,139.733 		"/>
		<polyline fill="none" stroke="#30241C" stroke-width="1.6276" stroke-linejoin="bevel" stroke-miterlimit="10" points="
			74.971,10.002 74.893,139.732 75.029,140.002 75.165,139.733 		"/>
		
			<line fill="none" stroke="#30241C" stroke-width="2.031" stroke-linejoin="bevel" stroke-miterlimit="10" x1="48.856" y1="36.117" x2="101.202" y2="36.117"/>
		
			<line fill="none" stroke="#30241C" stroke-width="2.031" stroke-linejoin="bevel" stroke-miterlimit="10" x1="48.856" y1="113.963" x2="101.202" y2="113.963"/>
		<line fill="none" stroke="#30241C" stroke-width="2.031" stroke-miterlimit="10" x1="9.87" y1="75.105" x2="22.891" y2="75.105"/>
		
			<line fill="none" stroke="#30241C" stroke-width="2.031" stroke-miterlimit="10" x1="127.109" y1="75.105" x2="140.13" y2="75.105"/>
		
			<line fill="none" stroke="#30241C" stroke-width="2.031" stroke-miterlimit="10" x1="28.947" y1="121.159" x2="38.154" y2="111.951"/>
		
			<line fill="none" stroke="#30241C" stroke-width="2.031" stroke-miterlimit="10" x1="111.846" y1="38.258" x2="121.054" y2="29.051"/>
		
			<line fill="none" stroke="#30241C" stroke-width="2.031" stroke-miterlimit="10" x1="121.054" y1="121.159" x2="111.847" y2="111.951"/>
		
			<line fill="none" stroke="#30241C" stroke-width="2.031" stroke-miterlimit="10" x1="38.154" y1="38.258" x2="28.947" y2="29.051"/>
		<circle fill="none" stroke="#30241C" stroke-width="2.031" stroke-miterlimit="10" cx="119.581" cy="98.094" r="3.73"/>
		<circle fill="none" stroke="#30241C" stroke-width="2.031" stroke-miterlimit="10" cx="35.965" cy="56.93" r="2.121"/>
		<circle fill="none" stroke="#30241C" stroke-width="2.031" stroke-miterlimit="10" cx="106.086" cy="15.46" r="2.122"/>
		<g>
			
				<line fill="none" stroke="#30241C" stroke-width="2.031" stroke-miterlimit="10" x1="126.076" y1="55.574" x2="123.236" y2="58.414"/>
			
				<line fill="none" stroke="#30241C" stroke-width="2.031" stroke-miterlimit="10" x1="120.318" y1="61.332" x2="117.477" y2="64.173"/>
			
				<line fill="none" stroke="#30241C" stroke-width="2.031" stroke-miterlimit="10" x1="117.477" y1="55.574" x2="120.318" y2="58.414"/>
			
				<line fill="none" stroke="#30241C" stroke-width="2.031" stroke-miterlimit="10" x1="123.236" y1="61.333" x2="126.076" y2="64.173"/>
		</g>
		<g>
			<line fill="none" stroke="#30241C" stroke-width="2.031" stroke-miterlimit="10" x1="26.32" y1="91.99" x2="23.48" y2="94.83"/>
			
				<line fill="none" stroke="#30241C" stroke-width="2.031" stroke-miterlimit="10" x1="20.562" y1="97.749" x2="17.721" y2="100.589"/>
			
				<line fill="none" stroke="#30241C" stroke-width="2.031" stroke-miterlimit="10" x1="17.721" y1="91.99" x2="20.562" y2="94.83"/>
			
				<line fill="none" stroke="#30241C" stroke-width="2.031" stroke-miterlimit="10" x1="23.48" y1="97.749" x2="26.32" y2="100.589"/>
		</g>
	</g>
</g>
<g id="Layer_2">
</g>
</svg>
