<?xml version="1.0" encoding="utf-8"?>
<!-- Generator: Adobe Illustrator 19.1.0, SVG Export Plug-In . SVG Version: 6.00 Build 0)  -->
<svg version="1.1" xmlns="http://www.w3.org/2000/svg" xmlns:xlink="http://www.w3.org/1999/xlink" x="0px" y="0px"
	 viewBox="0 0 150 150" enable-background="new 0 0 150 150" xml:space="preserve">
<g id="icons">
	<rect x="132.27" y="29.541" fill="#D3DBDD" width="4.466" height="84.456"/>
	<rect x="24.873" y="29.541" fill="#D3DBDD" width="2.233" height="84.456"/>
	<rect x="115.013" y="29.541" fill="#D3DBDD" width="12.308" height="84.456"/>
	<path fill="#D3DBDD" d="M17.158,29.541v71.348C13.723,101.1,11,103.945,11,107.433c0,3.488,2.723,6.333,6.158,6.544v0.021h4.466
		V29.541H17.158z"/>
	
		<path fill="none" stroke="#000000" stroke-width="2.0312" stroke-linecap="round" stroke-linejoin="round" stroke-miterlimit="10" d="
		M17.636,29.651H141v84.364H17.5c0,0-6.5-0.49-6.5-6.771c0-6.28,6.5-6.229,6.5-6.229v-78c0,0-6.5,0.051-6.5,6.5s0,77.729,0,77.729"
		/>
	<rect x="56.5" y="126.948" fill="#9CC32C" width="84.5" height="13.067"/>
	
		<line fill="none" stroke="#000000" stroke-width="2.0312" stroke-linejoin="round" stroke-miterlimit="10" x1="63" y1="126.948" x2="63" y2="133.482"/>
	
		<line fill="none" stroke="#000000" stroke-width="2.0312" stroke-linejoin="round" stroke-miterlimit="10" x1="79.25" y1="126.948" x2="79.25" y2="133.482"/>
	
		<line fill="none" stroke="#000000" stroke-width="2.0312" stroke-linejoin="round" stroke-miterlimit="10" x1="95.5" y1="126.948" x2="95.5" y2="133.482"/>
	
		<line fill="none" stroke="#000000" stroke-width="2.0312" stroke-linejoin="round" stroke-miterlimit="10" x1="111.75" y1="126.948" x2="111.75" y2="133.482"/>
	
		<line fill="none" stroke="#000000" stroke-width="2.0312" stroke-linejoin="round" stroke-miterlimit="10" x1="128" y1="126.948" x2="128" y2="133.482"/>
	<circle fill="none" stroke="#000000" stroke-width="2.0312" stroke-miterlimit="10" cx="134.5" cy="133.482" r="2.234"/>
	<rect x="36.188" y="10.016" fill="#5E9A31" width="65" height="9.885"/>
	<g>
		<path fill="none" stroke="#000000" stroke-width="2.0312" stroke-miterlimit="10" d="M138.768,15.771h-0.204
			c-0.449,0-0.812-0.363-0.812-0.812c0-0.448,0.364-0.812,0.812-0.812h0.204c0.449,0,0.812,0.365,0.812,0.812
			C139.58,15.407,139.216,15.771,138.768,15.771z M130.439,15.771h-0.204c-0.449,0-0.812-0.363-0.812-0.812
			c0-0.448,0.364-0.812,0.812-0.812h0.204c0.449,0,0.812,0.365,0.812,0.812C131.252,15.407,130.888,15.771,130.439,15.771z
			 M122.111,15.771h-0.203c-0.449,0-0.812-0.363-0.812-0.812c0-0.448,0.364-0.812,0.812-0.812h0.203
			c0.449,0,0.812,0.365,0.812,0.812C122.923,15.407,122.559,15.771,122.111,15.771z M113.782,15.771h-0.204
			c-0.449,0-0.812-0.363-0.812-0.812c0-0.448,0.364-0.812,0.812-0.812h0.204c0.449,0,0.812,0.365,0.812,0.812
			C114.595,15.407,114.231,15.771,113.782,15.771z M105.454,15.771h-0.204c-0.449,0-0.812-0.363-0.812-0.812
			c0-0.448,0.364-0.812,0.812-0.812h0.204c0.449,0,0.812,0.365,0.812,0.812C106.266,15.407,105.902,15.771,105.454,15.771z"/>
	</g>
	<polyline fill="none" stroke="#000000" stroke-width="2.0312" stroke-miterlimit="10" points="95.5,19.901 36.188,19.901 
		24.812,14.958 36.188,10.016 95.5,10.016 	"/>
	
		<line fill="none" stroke="#000000" stroke-width="2.0312" stroke-linejoin="round" stroke-miterlimit="10" x1="36.188" y1="14.958" x2="95.5" y2="14.958"/>
	<g>
		<circle fill="none" stroke="#5E9A31" stroke-width="2.4375" stroke-miterlimit="10" cx="104.5" cy="73.694" r="17.295"/>
		<g>
			
				<circle fill="none" stroke="#5E9A31" stroke-width="3.25" stroke-miterlimit="10" stroke-dasharray="2.4862,6.6299" cx="104.5" cy="73.694" r="18.866"/>
		</g>
	</g>
	<circle fill="none" stroke="#9CC32C" stroke-width="2.4375" stroke-miterlimit="10" cx="57.375" cy="65.569" r="21.619"/>
	<g>
		
			<circle fill="none" stroke="#9CC32C" stroke-width="3.25" stroke-miterlimit="10" stroke-dasharray="2.3765,6.3374" cx="57.375" cy="65.569" r="23.583"/>
	</g>
	
		<line fill="none" stroke="#000000" stroke-width="2.0312" stroke-linejoin="round" stroke-miterlimit="10" x1="73.833" y1="126.948" x2="73.833" y2="129.419"/>
	
		<line fill="none" stroke="#000000" stroke-width="2.0312" stroke-linejoin="round" stroke-miterlimit="10" x1="68.417" y1="126.948" x2="68.417" y2="129.419"/>
	
		<line fill="none" stroke="#000000" stroke-width="2.0312" stroke-linejoin="round" stroke-miterlimit="10" x1="90.083" y1="126.948" x2="90.083" y2="129.419"/>
	
		<line fill="none" stroke="#000000" stroke-width="2.0312" stroke-linejoin="round" stroke-miterlimit="10" x1="84.667" y1="126.948" x2="84.667" y2="129.419"/>
	
		<line fill="none" stroke="#000000" stroke-width="2.0312" stroke-linejoin="round" stroke-miterlimit="10" x1="106.333" y1="126.948" x2="106.333" y2="129.419"/>
	
		<line fill="none" stroke="#000000" stroke-width="2.0312" stroke-linejoin="round" stroke-miterlimit="10" x1="100.917" y1="126.948" x2="100.917" y2="129.419"/>
	
		<line fill="none" stroke="#000000" stroke-width="2.0312" stroke-linejoin="round" stroke-miterlimit="10" x1="122.583" y1="126.948" x2="122.583" y2="129.419"/>
	
		<line fill="none" stroke="#000000" stroke-width="2.0312" stroke-linejoin="round" stroke-miterlimit="10" x1="117.167" y1="126.948" x2="117.167" y2="129.419"/>
	
		<path fill="none" stroke="#000000" stroke-width="2.0312" stroke-linecap="round" stroke-linejoin="round" stroke-miterlimit="10" d="
		M105.25,69.594L105.25,69.594l-41.19-13.87c-1.317-0.589-2.774-0.92-4.31-0.92c-5.834,0-10.563,4.729-10.563,10.562
		c0,5.833,4.729,10.563,10.563,10.563l44.688,1.502c2.188,0,3.961-1.773,3.961-3.961C108.399,71.562,107.048,69.969,105.25,69.594z"
		/>
</g>
<g id="Layer_2">
</g>
</svg>
