<?xml version="1.0" encoding="utf-8"?>
<!-- Generator: Adobe Illustrator 19.1.0, SVG Export Plug-In . SVG Version: 6.00 Build 0)  -->
<svg version="1.1" xmlns="http://www.w3.org/2000/svg" xmlns:xlink="http://www.w3.org/1999/xlink" x="0px" y="0px"
	 viewBox="0 0 150 150" enable-background="new 0 0 150 150" xml:space="preserve">
<g id="icons">
	<g>
		<path fill="#D3DBDD" d="M75,68.414c-6.269,5.614-10.799,13.127-12.688,21.636c3.986,1.291,8.237,1.992,12.653,1.992
			c4.44,0,8.714-0.708,12.719-2.013C85.792,81.529,81.263,74.023,75,68.414z"/>
		<path fill="#D3DBDD" d="M115.008,59.95c-3.152,14.199-13.662,25.627-27.325,30.079c0.641,2.881,0.982,5.876,0.982,8.95
			c0,12.144-5.279,23.055-13.666,30.565C82.258,136.045,91.844,140,102.355,140c22.655,0,41.021-18.366,41.021-41.021
			C143.376,80.739,131.471,65.283,115.008,59.95z"/>
		<path fill="#9CC32C" d="M61.334,98.979c0-3.067,0.339-6.054,0.977-8.929c-13.688-4.434-24.223-15.867-27.386-30.079
			C18.497,65.324,6.624,80.764,6.624,98.979C6.624,121.634,24.989,140,47.645,140c10.511,0,20.097-3.955,27.355-10.456
			C66.613,122.034,61.334,111.123,61.334,98.979z"/>
		
			<path fill="none" stroke="#30241C" stroke-width="2.031" stroke-linecap="round" stroke-linejoin="round" stroke-miterlimit="10" d="
			M91.89,100.21c0-3.798-0.421-7.498-1.213-11.057c-4.947,1.612-10.227,2.487-15.712,2.487c-5.455,0-10.707-0.866-15.631-2.461
			c-0.789,3.551-1.208,7.242-1.208,11.03c0,15.003,6.521,28.481,16.882,37.759C85.368,128.69,91.89,115.212,91.89,100.21z"/>
		<path fill="#7FB927" d="M75,68.414c7.258-6.501,16.845-10.456,27.355-10.456c4.416,0,8.667,0.701,12.653,1.992
			c0.638-2.875,0.977-5.862,0.977-8.929C115.986,28.365,97.62,10,74.965,10c-22.656,0-41.021,18.365-41.021,41.021
			c0,3.074,0.341,6.069,0.982,8.95c4.005-1.305,8.279-2.013,12.719-2.013C58.156,57.958,67.741,61.913,75,68.414z"/>
		
			<path fill="none" stroke="#30241C" stroke-width="2.031" stroke-linecap="round" stroke-linejoin="round" stroke-miterlimit="10" d="
			M75.008,62.45c7.738,6.929,13.332,16.202,15.669,26.703c16.878-5.5,29.862-19.618,33.757-37.158
			c-4.924-1.595-10.176-2.461-15.632-2.461C95.817,49.533,83.974,54.419,75.008,62.45z"/>
		
			<path fill="none" stroke="#30241C" stroke-width="2.031" stroke-linecap="round" stroke-linejoin="round" stroke-miterlimit="10" d="
			M59.333,89.179c2.334-10.512,7.93-19.794,15.675-26.729c-8.967-8.031-20.809-12.917-33.794-12.917
			c-5.485,0-10.765,0.875-15.712,2.487C29.409,69.577,42.423,83.701,59.333,89.179z"/>
	</g>
</g>
<g id="Layer_2">
</g>
</svg>
