<?xml version="1.0" encoding="utf-8"?>
<!-- Generator: Adobe Illustrator 19.1.0, SVG Export Plug-In . SVG Version: 6.00 Build 0)  -->
<svg version="1.1" id="Layer_1" xmlns="http://www.w3.org/2000/svg" xmlns:xlink="http://www.w3.org/1999/xlink" x="0px" y="0px"
	 viewBox="0 0 56 56" enable-background="new 0 0 56 56" xml:space="preserve">
<g>
	<path fill="#FFFFFF" d="M42.04,36.395l-9.696-8.239l9.696-8.432V36.395z M40.024,38.03H15.978c-0.539,0-1.021-0.206-1.382-0.549
		l9.933-8.511l3.478,3.047l3.465-3.047l9.932,8.511C41.042,37.824,40.561,38.03,40.024,38.03 M13.96,19.733l9.696,8.423
		l-9.696,8.239V19.733z M15.978,17.97h24.046c0.537,0,1.028,0.206,1.379,0.549L28.006,30.009l-13.41-11.489
		C14.957,18.176,15.449,17.97,15.978,17.97 M28,0C12.536,0,0,12.536,0,28s12.536,28,28,28s28-12.536,28-28S43.464,0,28,0"/>
</g>
</svg>
