<?xml version="1.0" encoding="utf-8"?>
<!-- Generator: Adobe Illustrator 19.1.0, SVG Export Plug-In . SVG Version: 6.00 Build 0)  -->
<svg version="1.1" id="Layer_1" xmlns="http://www.w3.org/2000/svg" xmlns:xlink="http://www.w3.org/1999/xlink" x="0px" y="0px"
	 viewBox="0 0 306.799 35.907" enable-background="new 0 0 306.799 35.907" xml:space="preserve">
<g>
	<g>
		<path fill="#FFFFFF" d="M10.561,23.57c0,0.864,0.144,1.632,0.384,2.256c0.768,2.064,3.072,2.496,5.041,2.496
			c1.728,0,4.368-0.576,4.368-3.12c0-1.776-1.488-2.256-7.393-3.937c-5.424-1.536-11.617-3.024-11.617-9.937
			C1.344,3.408,8.113,0,15.169,0c7.441,0,14.018,2.832,14.306,11.185H19.49c0.192-1.296-0.384-2.16-1.249-2.736
			c-0.864-0.625-2.064-0.864-3.12-0.864c-1.44,0-3.792,0.384-3.792,2.304c0.192,2.448,5.088,2.976,9.937,4.32
			c4.849,1.344,9.649,3.601,9.649,9.889c0,8.929-8.208,11.809-15.841,11.809C11.185,35.907,0.096,34.515,0,23.57H10.561z"/>
		<path fill="#FFFFFF" d="M33.984,10.177h9.168v3.312h0.096c1.92-2.88,4.705-3.936,8.161-3.936c2.688,0,5.568,1.392,6.721,3.888
			c0.384-0.288,2.304-3.888,8.497-3.888c6.385,0,8.545,4.416,8.545,8.449v17.089h-9.505V21.602c0-2.352-0.24-4.464-3.121-4.464
			c-2.4,0-3.216,1.872-3.216,4.464v13.489h-9.505V21.602c0-2.352-0.24-4.464-3.121-4.464c-2.4,0-3.216,1.872-3.216,4.464v13.489
			h-9.504V10.177z"/>
		<path fill="#FFFFFF" d="M104.545,29.522c0,1.872,0.096,3.984,1.152,5.568H96c-0.24-0.672-0.384-1.68-0.336-2.352h-0.096
			c-2.017,2.304-4.945,2.976-8.017,2.976c-4.8,0-8.785-2.304-8.785-7.537c0-7.873,9.217-7.584,14.065-8.497
			c1.296-0.24,2.592-0.624,2.592-2.208c0-1.68-1.584-2.304-3.121-2.304c-2.928,0-3.504,1.488-3.552,2.544h-8.833
			c0.144-3.504,1.872-5.568,4.32-6.721c2.4-1.152,5.568-1.44,8.497-1.44c11.905,0,11.809,4.944,11.809,9.745V29.522z M95.425,23.906
			c-1.152,0.576-2.448,0.912-3.745,1.2c-2.112,0.48-3.216,1.008-3.216,2.688c0,1.152,1.248,2.305,2.977,2.305
			c2.16,0,3.84-1.296,3.984-3.889V23.906z"/>
		<path fill="#FFFFFF" d="M109.583,10.177h9.121v3.984h0.096c1.536-2.977,3.552-4.608,7.009-4.608c0.96,0,1.872,0.144,2.784,0.384
			v8.401c-0.96-0.336-1.824-0.624-3.745-0.624c-3.744,0-5.76,2.208-5.76,7.537v9.841h-9.505V10.177z"/>
		<path fill="#FFFFFF" d="M142.319,10.177h5.088v5.856h-5.088v8.688c0,2.305,0.528,3.312,2.928,3.312c0.72,0,1.44-0.048,2.16-0.144
			v7.201c-1.92,0-4.08,0.288-6.096,0.288c-4.033,0-8.497-0.624-8.497-7.441V16.033h-4.224v-5.856h4.224V2.592h9.505V10.177z"/>
		<path fill="#FFFFFF" d="M166.174,23.81c-0.144,7.056,4.945,9.217,11.185,9.217c3.601,0,9.073-1.968,9.073-6.961
			c0-3.888-3.888-5.424-7.057-6.192l-7.632-1.872c-4.033-1.008-7.729-2.928-7.729-8.257c0-3.36,2.16-9.649,11.809-9.649
			c6.769,0,12.721,3.648,12.673,10.657h-3.264c-0.192-5.232-4.513-7.873-9.361-7.873c-4.464,0-8.593,1.729-8.593,6.817
			c0,3.216,2.4,4.56,5.184,5.232l8.353,2.064c4.848,1.296,8.881,3.408,8.881,9.025c0,2.352-0.96,9.793-13.105,9.793
			c-8.112,0-14.065-3.648-13.681-12.001H166.174z"/>
		<path fill="#FFFFFF" d="M196.077,23.522c0.048,4.416,2.353,9.745,8.161,9.745c4.417,0,6.817-2.592,7.777-6.336h3.024
			c-1.296,5.616-4.561,8.881-10.801,8.881c-7.873,0-11.185-6.049-11.185-13.105c0-6.528,3.312-13.105,11.185-13.105
			c7.969,0,11.137,6.96,10.897,13.921H196.077z M212.111,20.978c-0.144-4.561-2.977-8.833-7.873-8.833
			c-4.944,0-7.681,4.32-8.161,8.833H212.111z"/>
		<path fill="#FFFFFF" d="M220.989,23.522c0.048,4.416,2.353,9.745,8.161,9.745c4.416,0,6.816-2.592,7.776-6.336h3.024
			c-1.297,5.616-4.561,8.881-10.801,8.881c-7.873,0-11.185-6.049-11.185-13.105c0-6.528,3.312-13.105,11.185-13.105
			c7.969,0,11.137,6.96,10.896,13.921H220.989z M237.023,20.978c-0.145-4.561-2.977-8.833-7.873-8.833
			c-4.945,0-7.681,4.32-8.161,8.833H237.023z"/>
		<path fill="#FFFFFF" d="M265.919,35.091h-2.784v-4.705h-0.096c-1.296,3.216-5.232,5.425-8.833,5.425
			c-7.536,0-11.137-6.097-11.137-13.105c0-7.008,3.601-13.105,11.137-13.105c3.696,0,7.297,1.872,8.593,5.424h0.096V0.816h3.024
			V35.091z M254.206,33.267c6.433,0,8.688-5.424,8.688-10.561c0-5.136-2.256-10.561-8.688-10.561c-5.761,0-8.112,5.424-8.112,10.561
			C246.094,27.842,248.445,33.267,254.206,33.267z"/>
		<path fill="#FFFFFF" d="M286.511,17.569c-0.145-3.744-3.024-5.424-6.48-5.424c-2.688,0-5.856,1.056-5.856,4.272
			c0,2.688,3.072,3.648,5.136,4.177l4.032,0.912c3.457,0.528,7.057,2.544,7.057,6.864c0,5.376-5.328,7.441-9.937,7.441
			c-5.761,0-9.697-2.688-10.177-8.737h3.024c0.239,4.08,3.264,6.192,7.296,6.192c2.833,0,6.769-1.248,6.769-4.704
			c0-2.88-2.688-3.841-5.424-4.513l-3.889-0.864c-3.937-1.056-6.912-2.4-6.912-6.625c0-5.04,4.944-6.96,9.312-6.96
			c4.944,0,8.881,2.592,9.073,7.969H286.511z"/>
	</g>
	<g>
		<path fill="#FFFFFF" d="M293.303,1.783h-2.855V0.824h6.849v0.959h-2.854v7.604h-1.139V1.783z"/>
		<path fill="#FFFFFF" d="M298.271,0.824h1.559l2.699,7.196l2.71-7.196h1.56v8.563h-1.08V2.263h-0.023l-2.675,7.124h-0.972
			l-2.674-7.124h-0.024v7.124h-1.079V0.824z"/>
	</g>
</g>
</svg>
