<?xml version="1.0" encoding="utf-8"?>
<!-- Generator: Adobe Illustrator 19.1.0, SVG Export Plug-In . SVG Version: 6.00 Build 0)  -->
<svg version="1.1" xmlns="http://www.w3.org/2000/svg" xmlns:xlink="http://www.w3.org/1999/xlink" x="0px" y="0px"
	 viewBox="0 0 150 150" enable-background="new 0 0 150 150" xml:space="preserve">
<g id="icons">
	<polyline fill="none" stroke="#5E9A31" stroke-width="2.0628" stroke-miterlimit="10" points="57.869,101.454 39.838,101.454 
		20.721,101.454 	"/>
	<polyline fill="none" stroke="#5E9A31" stroke-width="1.719" stroke-miterlimit="10" points="128.74,101.454 110.215,101.454 
		90.577,101.454 	"/>
	<path fill="none" stroke="#000000" stroke-width="1.719" stroke-miterlimit="10" d="M59.13,105.738H20.744
		c0,0-0.916-9.857,8.709-18.911c8.477-7.974,25.574-19.594,29.533-29.299"/>
	<path fill="none" stroke="#000000" stroke-width="1.719" stroke-miterlimit="10" d="M90.87,105.738h38.385
		c0,0,0.917-9.857-8.708-18.911c-8.615-8.105-27.511-19.975-31.092-29.774"/>
	<polyline fill="none" stroke="#000000" stroke-width="1.719" stroke-miterlimit="10" points="65.317,108.374 63.026,119.492 
		85.369,119.492 83.651,108.374 	"/>
	<path fill="#9CC32C" d="M57.755,70.143c0-15.75,0-15.919,0-16.439c0-8.358,4.228-22.944,7.859-33.238h8.698v10.748v6.492v70.784
		h-0.057H57.755c0-11.275,0-20.196,0-27.261V70.143z"/>
	<path fill="#5E9A31" d="M90.87,81.157c0,13.783,0,27.332,0,27.332h-16.5h-0.057V37.404v-6.047V20.465h8.698
		c3.632,10.294,7.859,24.88,7.859,33.238c0,2.639,0,8.941,0,16.37V81.157z"/>
	<g>
		<path fill="#D3DBDD" d="M82.849,20.006c-3.008-8.463-8.389-10.541-8.537-10.514c-0.148-0.027-5.529,2.051-8.537,10.514
			c-0.054,0.151-0.108,0.306-0.162,0.459h8.698h8.698C82.957,20.312,82.903,20.157,82.849,20.006z"/>
	</g>
	
		<line fill="none" stroke="#000000" stroke-width="1.719" stroke-miterlimit="10" x1="57.893" y1="86.483" x2="90.732" y2="86.483"/>
	
		<line fill="none" stroke="#000000" stroke-width="1.719" stroke-miterlimit="10" x1="57.893" y1="91.985" x2="90.732" y2="91.985"/>
	<path fill="#FFFFFF" d="M74.312,31.468c11,0,11,11.003,11,11.003c-4.125-5.101-11-4.929-11-4.929s-6.875-0.172-11,4.929
		C63.312,42.471,63.312,31.468,74.312,31.468z"/>
	
		<rect x="55.463" y="69.979" fill="none" stroke="#000000" stroke-width="1.719" stroke-miterlimit="10" width="4.469" height="11.117"/>
	
		<rect x="88.521" y="69.979" fill="none" stroke="#000000" stroke-width="1.719" stroke-miterlimit="10" width="4.469" height="11.117"/>
	<path fill="none" stroke="#000000" stroke-width="1.719" stroke-miterlimit="10" d="M40.996,18.667
		c4.779-1.532,8.587-1.628,9.366,0.004"/>
	<path fill="none" stroke="#000000" stroke-width="1.719" stroke-miterlimit="10" d="M25.012,30.782
		c-0.724-1.517,1.355-4.128,5.017-6.701"/>
	<circle fill="#5E9A31" cx="37.273" cy="25.093" r="8.437"/>
	<path fill="none" stroke="#000000" stroke-width="1.719" stroke-miterlimit="10" d="M50.362,18.671
		c1.049,2.195-3.777,6.686-10.777,10.03c-7,3.344-13.525,4.276-14.573,2.081"/>
	<circle fill="none" stroke="#000000" stroke-width="1.719" stroke-miterlimit="10" cx="115.954" cy="42.471" r="3.084"/>
	<circle fill="none" stroke="#000000" stroke-width="1.719" stroke-miterlimit="10" cx="28.397" cy="69.191" r="1.899"/>
	<text transform="matrix(1 0 0 1 19.5815 138.4722)" font-family="'Karla-BoldItalic'" font-size="14px">Pitch and delivery</text>
</g>
<g id="Layer_2">
</g>
</svg>
