<?xml version="1.0" encoding="utf-8"?>
<!-- Generator: Adobe Illustrator 19.1.0, SVG Export Plug-In . SVG Version: 6.00 Build 0)  -->
<svg version="1.1" xmlns="http://www.w3.org/2000/svg" xmlns:xlink="http://www.w3.org/1999/xlink" x="0px" y="0px"
	 viewBox="0 0 150 150" enable-background="new 0 0 150 150" xml:space="preserve">
<g id="icons">
	<polyline fill="none" stroke="#5E9A31" stroke-width="2.4378" stroke-miterlimit="10" points="55.083,118.656 33.772,118.656 
		11.18,118.656 	"/>
	<polyline fill="none" stroke="#5E9A31" stroke-width="2.0315" stroke-miterlimit="10" points="138.838,118.656 116.946,118.656 
		93.736,118.656 	"/>
	<path fill="none" stroke="#000000" stroke-width="2.0315" stroke-miterlimit="10" d="M56.572,123.719H11.207
		c0,0-1.083-11.65,10.292-22.35c10.018-9.424,30.223-23.156,34.902-34.626"/>
	<path fill="none" stroke="#000000" stroke-width="2.0315" stroke-miterlimit="10" d="M94.083,123.719h45.365
		c0,0,1.083-11.65-10.292-22.35c-10.182-9.579-32.513-23.607-36.745-35.187"/>
	<polyline fill="none" stroke="#000000" stroke-width="2.0315" stroke-miterlimit="10" points="63.885,126.834 61.176,139.973 
		87.582,139.973 85.551,126.834 	"/>
	<path fill="#9CC32C" d="M54.947,81.651c0-18.613,0-18.814,0-19.428c0-9.877,4.996-27.115,9.288-39.281h10.28v12.703v7.672v83.654
		h-0.067H54.947c0-13.325,0-23.868,0-32.218V81.651z"/>
	<path fill="#5E9A31" d="M94.083,94.668c0,16.288,0,32.301,0,32.301h-19.5h-0.067V42.961v-7.146V22.941h10.28
		c4.292,12.166,9.288,29.404,9.288,39.281c0,3.119,0,10.566,0,19.346V94.668z"/>
	<g>
		<path fill="#D3DBDD" d="M84.604,22.399C81.049,12.398,74.69,9.942,74.515,9.974c-0.175-0.032-6.534,2.424-10.089,12.426
			c-0.063,0.178-0.127,0.361-0.191,0.542h10.28h10.28C84.731,22.76,84.667,22.578,84.604,22.399z"/>
	</g>
	
		<line fill="none" stroke="#000000" stroke-width="2.0315" stroke-miterlimit="10" x1="55.11" y1="100.963" x2="93.92" y2="100.963"/>
	
		<line fill="none" stroke="#000000" stroke-width="2.0315" stroke-miterlimit="10" x1="55.11" y1="107.464" x2="93.92" y2="107.464"/>
	<path fill="#FFFFFF" d="M74.515,35.945c13,0,13,13.004,13,13.004c-4.875-6.028-13-5.825-13-5.825s-8.125-0.203-13,5.825
		C61.515,48.949,61.515,35.945,74.515,35.945z"/>
	
		<rect x="52.239" y="81.457" fill="none" stroke="#000000" stroke-width="2.0315" stroke-miterlimit="10" width="5.281" height="13.138"/>
	
		<rect x="91.307" y="81.457" fill="none" stroke="#000000" stroke-width="2.0315" stroke-miterlimit="10" width="5.281" height="13.138"/>
	<path fill="none" stroke="#000000" stroke-width="2.0315" stroke-miterlimit="10" d="M35.141,20.817
		c5.648-1.81,10.148-1.924,11.069,0.005"/>
	<path fill="none" stroke="#000000" stroke-width="2.0315" stroke-miterlimit="10" d="M16.252,35.134
		c-0.856-1.792,1.601-4.879,5.929-7.919"/>
	<circle fill="#5E9A31" cx="30.741" cy="28.411" r="9.971"/>
	<path fill="none" stroke="#000000" stroke-width="2.0315" stroke-miterlimit="10" d="M46.21,20.822
		c1.239,2.594-4.463,7.901-12.736,11.854c-8.273,3.952-15.984,5.053-17.222,2.459"/>
	<circle fill="none" stroke="#000000" stroke-width="2.0315" stroke-miterlimit="10" cx="123.728" cy="48.949" r="3.645"/>
	<circle fill="none" stroke="#000000" stroke-width="2.0315" stroke-miterlimit="10" cx="20.251" cy="80.526" r="2.244"/>
</g>
<g id="Layer_2">
</g>
</svg>
