<?xml version="1.0" encoding="utf-8"?>
<!-- Generator: Adobe Illustrator 19.1.0, SVG Export Plug-In . SVG Version: 6.00 Build 0)  -->
<svg version="1.1" xmlns="http://www.w3.org/2000/svg" xmlns:xlink="http://www.w3.org/1999/xlink" x="0px" y="0px"
	 viewBox="0 0 150 150" enable-background="new 0 0 150 150" xml:space="preserve">
<g id="icons">
	<g>
		<polygon fill="#D3DBDD" points="45.763,130.356 17.312,130.356 17.312,109.808 18.957,109.808 18.963,108.227 26.857,108.227 
			26.859,109.808 45.763,109.808 		"/>
		<polygon fill="#D3DBDD" points="85.799,130.356 57.349,130.356 57.349,109.808 58.994,109.808 58.999,108.227 66.893,108.227 
			66.896,109.808 85.799,109.808 		"/>
		<polygon fill="#D3DBDD" points="125.836,130.356 97.385,130.356 97.385,109.808 99.03,109.808 99.036,108.227 106.93,108.227 
			106.932,109.808 125.836,109.808 		"/>
		<circle fill="none" stroke="#000000" stroke-width="2.031" stroke-miterlimit="10" cx="111.61" cy="119.292" r="3.264"/>
		<circle fill="none" stroke="#000000" stroke-width="2.031" stroke-miterlimit="10" cx="31.537" cy="119.292" r="3.264"/>
		<circle fill="none" stroke="#000000" stroke-width="2.031" stroke-miterlimit="10" cx="71.574" cy="119.292" r="3.264"/>
		<polyline fill="none" stroke="#000000" stroke-width="2.031" stroke-miterlimit="10" points="111.61,116.028 111.61,101.603 
			31.538,101.603 31.538,116.028 		"/>
		
			<line fill="none" stroke="#000000" stroke-width="2.031" stroke-miterlimit="10" x1="71.574" y1="96.44" x2="71.574" y2="116.028"/>
		<polyline fill="#5E9A31" points="119.951,97.435 19.934,97.435 19.934,25.201 25.716,25.201 25.736,19.644 53.487,19.644 
			53.496,25.201 119.951,25.201 119.951,31.737 		"/>
		<polygon fill="#9CC32C" points="119.951,97.435 19.934,97.435 32.671,31.736 132.688,31.736 		"/>
		<path fill="#FFFFFF" d="M97.622,64.374c0,11.768-9.543,21.309-21.311,21.309C64.542,85.682,55,76.142,55,64.374
			c0-11.773,9.543-21.313,21.311-21.313C88.079,43.061,97.622,52.601,97.622,64.374z"/>
		<circle fill="none" stroke="#000000" stroke-width="2.031" stroke-miterlimit="10" cx="76.311" cy="64.372" r="6.251"/>
		<g>
			<circle fill="none" stroke="#000000" stroke-width="2.0837" stroke-miterlimit="10" cx="76.311" cy="64.371" r="14.785"/>
			<g>
				
					<circle fill="none" stroke="#000000" stroke-width="2.7782" stroke-miterlimit="10" stroke-dasharray="2.1253,5.6675" cx="76.311" cy="64.371" r="16.128"/>
			</g>
		</g>
	</g>
</g>
<g id="Layer_2">
</g>
</svg>
