<?xml version="1.0" encoding="utf-8"?>
<!-- Generator: Adobe Illustrator 19.1.0, SVG Export Plug-In . SVG Version: 6.00 Build 0)  -->
<svg version="1.1" id="Layer_1" xmlns="http://www.w3.org/2000/svg" xmlns:xlink="http://www.w3.org/1999/xlink" x="0px" y="0px"
	 viewBox="0 0 56 56" enable-background="new 0 0 56 56" xml:space="preserve">
<g>
	<path fill="#FFFFFF" d="M40.492,21.594c0.01,0.274,0.016,0.555,0.016,0.837c0,8.514-6.48,18.331-18.337,18.331
		c-3.64,0-7.027-1.062-9.88-2.896c0.506,0.061,1.018,0.093,1.537,0.093c3.022,0,5.798-1.029,8.006-2.759
		c-2.82-0.055-5.198-1.916-6.019-4.478c0.391,0.078,0.793,0.116,1.211,0.116c0.584,0,1.156-0.076,1.696-0.226
		c-2.946-0.589-5.171-3.193-5.171-6.316c0-0.028,0-0.055,0.006-0.083c0.864,0.485,1.862,0.772,2.919,0.804
		c-1.73-1.15-2.87-3.127-2.87-5.363c0-1.178,0.32-2.285,0.871-3.238c3.176,3.899,7.93,6.465,13.281,6.734
		c-0.11-0.474-0.165-0.963-0.165-1.47c0-3.557,2.886-6.442,6.444-6.442c1.855,0,3.529,0.782,4.702,2.032
		c1.47-0.286,2.854-0.821,4.098-1.564c-0.485,1.508-1.504,2.77-2.836,3.568c1.305-0.154,2.55-0.501,3.7-1.012
		C42.844,19.551,41.747,20.684,40.492,21.594 M27.996,0C12.561,0,0,12.563,0,27.998C0,43.439,12.561,56,27.996,56
		C43.437,56,56,43.439,56,27.998C56,12.563,43.437,0,27.996,0"/>
</g>
</svg>
